HIERARCHY
ROOT joint_0
{
	OFFSET 0.000000 0.000000 0.000000
	CHANNELS 6 Xposition Yposition Zposition Zrotation Yrotation Xrotation 
	JOINT joint_1
	{
		OFFSET 6.004005 -1.946999 100.587036
		CHANNELS 3 Zrotation Yrotation Xrotation
		JOINT joint_2
		{
			OFFSET -4.601006 -0.824997 91.925903
			CHANNELS 3 Zrotation Yrotation Xrotation
			JOINT joint_3
			{
				OFFSET -5.420998 -1.130005 91.774048
				CHANNELS 3 Zrotation Yrotation Xrotation
				JOINT joint_4
				{
					OFFSET 4.308998 -3.777992 123.473999
					CHANNELS 3 Zrotation Yrotation Xrotation
					JOINT joint_5
					{
						OFFSET 25.565002 -6.305008 79.437988
						CHANNELS 3 Zrotation Yrotation Xrotation
						End Site
						{
							OFFSET 0.000000 0.000000 0.000000
						}
					}
				}
				JOINT joint_6
				{
					OFFSET -1.750000 -28.655998 68.557983
					CHANNELS 3 Zrotation Yrotation Xrotation
					JOINT joint_7
					{
						OFFSET -17.692001 -116.544006 -17.244019
						CHANNELS 3 Zrotation Yrotation Xrotation
						JOINT joint_8
						{
							OFFSET 27.063004 -23.640991 -266.895020
							CHANNELS 3 Zrotation Yrotation Xrotation
							JOINT joint_9
							{
								OFFSET 40.722000 -15.761017 -232.488953
								CHANNELS 3 Zrotation Yrotation Xrotation
								End Site
								{
									OFFSET 0.000000 0.000000 0.000000
								}
							}
						}
					}
				}
				JOINT joint_10
				{
					OFFSET 6.593002 24.457001 69.892944
					CHANNELS 3 Zrotation Yrotation Xrotation
					JOINT joint_11
					{
						OFFSET 24.311996 114.920002 -19.872925
						CHANNELS 3 Zrotation Yrotation Xrotation
						JOINT joint_12
						{
							OFFSET 21.081001 15.319000 -268.037964
							CHANNELS 3 Zrotation Yrotation Xrotation
							JOINT joint_13
							{
								OFFSET 27.794006 -8.947001 -234.744080
								CHANNELS 3 Zrotation Yrotation Xrotation
								End Site
								{
									OFFSET 0.000000 0.000000 0.000000
								}
							}
						}
					}
				}
			}
		}
	}
	JOINT joint_14
	{
		OFFSET -6.627998 -80.520004 -98.790039
		CHANNELS 3 Zrotation Yrotation Xrotation
		JOINT joint_15
		{
			OFFSET -43.638000 -13.751999 -502.538971
			CHANNELS 3 Zrotation Yrotation Xrotation
			JOINT joint_16
			{
				OFFSET -39.532999 -9.912994 -398.071007
				CHANNELS 3 Zrotation Yrotation Xrotation
				JOINT joint_17
				{
					OFFSET 174.940004 -34.660995 -75.688002
					CHANNELS 3 Zrotation Yrotation Xrotation
					End Site
					{
						OFFSET 0.000000 0.000000 0.000000
					}
				}
			}
		}
	}
	JOINT joint_18
	{
		OFFSET 12.591003 79.842003 -98.765015
		CHANNELS 3 Zrotation Yrotation Xrotation
		JOINT joint_19
		{
			OFFSET -39.080002 -1.297001 -503.101013
			CHANNELS 3 Zrotation Yrotation Xrotation
			JOINT joint_20
			{
				OFFSET -51.570000 -0.514000 -396.815987
				CHANNELS 3 Zrotation Yrotation Xrotation
				JOINT joint_21
				{
					OFFSET 178.987999 -11.521999 -73.244003
					CHANNELS 3 Zrotation Yrotation Xrotation
					End Site
					{
						OFFSET 0.000000 0.000000 0.000000
					}
				}
			}
		}
	}
}
MOTION
Frames: 7
Frame Time: 0.016667
197.890000 -158.103000 1106.672970 -0.991444 5.249373 -1.429273 0.885955 0.862490 -0.571840 0.989057 -0.179237 0.173356 0.985421 0.197780 -0.135546 -0.441076 -0.134050 1.290485 0.000000 0.000000 0.000000 1.726636 4.909405 -1.371533 -3.176254 6.843374 -11.462388 0.289360 -28.511825 -3.335898 0.000000 0.000000 0.000000 -1.697526 4.445763 8.289358 2.254855 4.614721 10.595650 0.582317 -20.797171 -3.007899 0.000000 0.000000 0.000000 0.639465 -7.461903 2.336183 -0.469040 21.428620 -0.219325 -0.408814 -0.537717 -0.266713 0.000000 0.000000 0.000000 2.700535 -20.974175 2.210039 0.702736 43.592850 6.443008 2.604343 3.314053 1.106708 0.000000 0.000000 0.000000 
206.289990 -158.735000 1106.461060 -1.202363 4.951867 -1.544704 0.907813 1.035652 -0.189915 1.104010 -0.151535 0.092301 1.118932 0.194403 -0.080477 -0.393088 0.443622 1.287930 0.000000 0.000000 0.000000 1.630451 4.531960 -1.611850 -3.451967 6.509419 -12.221761 0.161667 -30.159292 -3.917161 0.000000 0.000000 0.000000 -1.366991 4.726026 7.954033 2.422060 4.657751 10.773598 0.807479 -23.068577 -1.840171 0.000000 0.000000 0.000000 0.942494 -6.720067 2.304486 -0.285055 21.476769 0.116853 -0.306601 -0.353057 -0.189224 0.000000 0.000000 0.000000 3.442643 -23.627024 1.920542 0.516203 48.860513 7.495989 2.731945 6.280823 1.297613 0.000000 0.000000 0.000000 
214.884000 -159.041000 1105.947020 -1.475476 4.634709 -1.744762 0.883708 1.355878 0.336487 1.247204 -0.177803 -0.050104 1.298454 0.205161 -0.025828 -0.355023 0.896358 1.283225 0.000000 0.000000 0.000000 1.604647 4.147804 -1.822940 -3.700077 6.158196 -12.830347 0.030302 -31.596869 -4.527117 0.000000 0.000000 0.000000 -1.025296 4.971593 7.613320 2.561505 4.697180 10.765755 1.014703 -25.175775 -0.667664 0.000000 0.000000 0.000000 1.191393 -5.952271 2.355200 -0.088166 21.527619 0.437776 -0.203740 -0.210234 -0.120569 0.000000 0.000000 0.000000 4.289101 -26.136198 1.629167 0.339464 53.474836 8.554708 2.841906 9.050768 1.473169 0.000000 0.000000 0.000000 
224.287000 -158.973010 1105.056030 -1.767701 4.311860 -1.962087 0.829569 1.625414 0.804899 1.375614 -0.230014 -0.157278 1.463788 0.238220 0.015479 -0.329386 1.397388 1.327646 0.000000 0.000000 0.000000 1.583120 3.800865 -1.993306 -3.878321 5.825569 -13.314449 -0.063034 -32.731606 -5.013919 0.000000 0.000000 0.000000 -0.531334 5.143599 7.332926 2.633376 4.678626 10.629082 1.151868 -26.823812 0.320697 0.000000 0.000000 0.000000 1.281502 -5.075909 2.458633 0.068954 21.472423 0.659919 -0.156831 -0.154735 -0.091617 0.000000 0.000000 0.000000 5.097630 -28.169837 1.261877 0.193332 57.153205 9.579119 2.856716 10.352054 1.532326 0.000000 0.000000 0.000000 
234.142000 -158.537990 1103.798950 -2.010723 4.013040 -2.175422 0.724358 1.881570 1.216504 1.476657 -0.282655 -0.223818 1.596183 0.291979 0.054461 -0.313543 1.845203 1.388566 0.000000 0.000000 0.000000 1.614932 3.489668 -2.182802 -4.012738 5.502427 -13.590383 -0.144708 -33.679266 -5.479620 0.000000 0.000000 0.000000 0.041667 5.255246 7.114110 2.669170 4.659336 10.259729 1.251638 -28.221822 1.272051 0.000000 0.000000 0.000000 1.238914 -4.158523 2.558605 0.178362 21.362652 0.850743 -0.165918 -0.194279 -0.103438 0.000000 0.000000 0.000000 5.900589 -30.030300 0.759593 0.067005 60.384989 10.642388 2.848130 10.574246 1.516080 0.000000 0.000000 0.000000 
244.468000 -157.884000 1102.431030 -2.235256 3.756140 -2.376892 0.617731 2.101583 1.595961 1.566931 -0.333419 -0.290655 1.715410 0.340971 0.093077 -0.310954 2.247306 1.477769 0.000000 0.000000 0.000000 1.619741 3.191868 -2.319788 -4.094682 5.182965 -13.763277 -0.206181 -34.314503 -5.929094 0.000000 0.000000 0.000000 0.630876 5.359510 6.896116 2.663673 4.630772 9.924542 1.292875 -29.293205 1.964022 0.000000 0.000000 0.000000 1.152604 -3.284598 2.640489 0.295904 21.301966 0.998701 -0.151202 -0.206202 -0.100792 0.000000 0.000000 0.000000 6.630667 -31.709245 0.313915 0.020992 62.709155 11.516734 3.017680 10.072006 1.511406 0.000000 0.000000 0.000000 
255.267000 -157.123000 1101.121950 -2.465515 3.576957 -2.550236 0.557380 2.230494 1.933914 1.648852 -0.371549 -0.370659 1.825003 0.366509 0.133526 -0.323229 2.613265 1.601560 0.000000 0.000000 0.000000 1.528469 2.877284 -2.350019 -4.115132 4.849104 -13.913650 -0.238149 -34.518500 -6.358215 0.000000 0.000000 0.000000 1.229748 5.488377 6.629695 2.614656 4.563771 9.846549 1.258450 -29.965633 2.190194 0.000000 0.000000 0.000000 1.106468 -2.546466 2.687282 0.446224 21.373846 1.097575 -0.071392 -0.107194 -0.051728 0.000000 0.000000 0.000000 7.230087 -33.216263 0.078866 0.096077 63.738441 12.003584 3.527004 8.924934 1.583870 0.000000 0.000000 0.000000 
